# xmcd CD database file
#
# Track frame offsets:
#	150
#	18220
#	40037
#	58225
#	79192
#	99265
#	115100
#	133440
#	150522
#	173420
#	194005
#	216437
#	237307
#	258077
#	280190
#	301807
#
# Disc length: 4329 seconds
#
# Revision: 0
# Processed by: cddbd v1.5.2PL0 Copyright (c) Steve Scherf et al.
# Submitted via: CDex 1.70beta2
#
DISCID=d410e710
DTITLE=田川寿美 - 女人高野
DYEAR=1900
DGENRE=Country
TTITLE0=女…ひとり旅
TTITLE1=なみだの港
TTITLE2=風ぐるま・恋歌
TTITLE3=みれん海峡
TTITLE4=風岬
TTITLE5=おきゃん
TTITLE6=華観月
TTITLE7=しゃくなげの雨
TTITLE8=哀愁港
TTITLE9=北海岸
TTITLE10=海峡みなと駅
TTITLE11=こぼれ月
TTITLE12=ねんねん ふるさと
TTITLE13=海鳴り
TTITLE14=雨の連絡船
TTITLE15=女人高野
EXTD=
EXTT0=
EXTT1=
EXTT2=
EXTT3=
EXTT4=
EXTT5=
EXTT6=
EXTT7=
EXTT8=
EXTT9=
EXTT10=
EXTT11=
EXTT12=
EXTT13=
EXTT14=
EXTT15=
PLAYORDER=
